<svg xmlns="http://www.w3.org/2000/svg" xmlns:xlink="http://www.w3.org/1999/xlink" width="480" zoomAndPan="magnify" viewBox="0 0 360 359.999987" height="480" preserveAspectRatio="xMidYMid meet" version="1.0"><defs><clipPath id="6cd2260f9a"><path d="M 713.601562 322.976562 L 37.023438 713.601562 L -353.601562 37.023438 L 322.976562 -353.601562 Z M 713.601562 322.976562 " clip-rule="nonzero"/></clipPath><clipPath id="e02a8437f2"><path d="M 713.601562 322.976562 L 37.023438 713.601562 L -353.601562 37.023438 L 322.976562 -353.601562 Z M 713.601562 322.976562 " clip-rule="nonzero"/></clipPath><clipPath id="53fa57fad2"><path d="M 322.976562 713.601562 L -353.601562 322.976562 L 37.023438 -353.601562 L 713.601562 37.023438 Z M 322.976562 713.601562 " clip-rule="nonzero"/></clipPath><clipPath id="8a137eb6af"><path d="M 322.976562 713.601562 L -353.601562 322.976562 L 37.023438 -353.601562 L 713.601562 37.023438 Z M 322.976562 713.601562 " clip-rule="nonzero"/></clipPath></defs><g clip-path="url(#6cd2260f9a)"><g clip-path="url(#e02a8437f2)"><path fill="#008583" d="M 17.238281 -101.910156 C 172.9375 -191.800781 372.015625 -138.457031 461.910156 17.238281 C 551.800781 172.9375 498.457031 372.015625 342.761719 461.910156 C 187.0625 551.800781 -12.015625 498.457031 -101.910156 342.761719 C -191.800781 187.0625 -138.457031 -12.015625 17.238281 -101.910156 Z M 49.792969 -45.527344 C -74.761719 26.386719 -117.4375 185.65625 -45.527344 310.207031 C 26.386719 434.761719 185.65625 477.4375 310.207031 405.527344 C 434.761719 333.613281 477.4375 174.34375 405.527344 49.792969 C 333.613281 -74.761719 174.34375 -117.4375 49.792969 -45.527344 Z M 337.226562 126.808594 L 55.316406 289.570312 L 22.765625 233.191406 L 304.675781 70.429688 Z M 337.226562 126.808594 " fill-opacity="1" fill-rule="nonzero"/></g></g><path fill="#008583" d="M -145.519531 180 C -145.519531 0.222656 0.222656 -145.519531 180 -145.519531 C 359.777344 -145.519531 505.519531 0.222656 505.519531 180 C 505.519531 359.777344 359.777344 505.519531 180 505.519531 C 0.222656 505.519531 -145.519531 359.777344 -145.519531 180 Z M -80.417969 180 C -80.417969 323.824219 36.175781 440.417969 180 440.417969 C 323.824219 440.417969 440.417969 323.824219 440.417969 180 C 440.417969 36.175781 323.824219 -80.417969 180 -80.417969 C 36.175781 -80.417969 -80.417969 36.175781 -80.417969 180 Z M 212.550781 17.238281 L 212.550781 342.761719 L 147.449219 342.761719 L 147.449219 17.238281 Z M 212.550781 17.238281 " fill-opacity="1" fill-rule="nonzero"/><g clip-path="url(#53fa57fad2)"><g clip-path="url(#8a137eb6af)"><path fill="#008583" d="M 342.761719 -101.910156 C 498.457031 -12.015625 551.800781 187.0625 461.910156 342.761719 C 372.015625 498.457031 172.9375 551.800781 17.238281 461.910156 C -138.457031 372.015625 -191.800781 172.9375 -101.910156 17.238281 C -12.015625 -138.457031 187.0625 -191.800781 342.761719 -101.910156 Z M 310.207031 -45.527344 C 185.65625 -117.4375 26.386719 -74.761719 -45.527344 49.792969 C -117.4375 174.34375 -74.761719 333.613281 49.792969 405.527344 C 174.34375 477.4375 333.613281 434.761719 405.527344 310.207031 C 477.4375 185.65625 434.761719 26.386719 310.207031 -45.527344 Z M 304.683594 289.570312 L 22.765625 126.808594 L 55.316406 70.429688 L 337.234375 233.191406 Z M 304.683594 289.570312 " fill-opacity="1" fill-rule="nonzero"/></g></g></svg>